<svg height="512pt" viewBox="0 -55 512 512" width="512pt" xmlns="http://www.w3.org/2000/svg"><path d="m498.679688 341.15625h-19.691407c7.945313-8.472656 12.824219-19.851562 12.824219-32.355469v-261.445312c0-26.109375-21.242188-47.355469-47.355469-47.355469h-170.957031c-4.144531 0-7.5 3.359375-7.5 7.5 0 4.144531 3.355469 7.5 7.5 7.5h170.957031c17.839844 0 32.355469 14.515625 32.355469 32.355469v261.445312c0 17.839844-14.515625 32.355469-32.355469 32.355469-10.28125 0-340.09375 0-368.980469 0-17.839843 0-32.355468-14.515625-32.355468-32.355469v-261.445312c0-17.839844 14.515625-32.355469 32.355468-32.355469h163.023438c4.140625 0 7.5-3.355469 7.5-7.5 0-4.140625-3.359375-7.5-7.5-7.5h-163.019531c-26.113281 0-47.359375 21.242188-47.359375 47.355469v261.445312c0 12.503907 4.882812 23.882813 12.824218 32.355469h-27.625c-7.34375 0-13.320312 5.976562-13.320312 13.320312v12.09375c0 19.027344 15.480469 34.503907 34.507812 34.503907h442.984376c19.027343 0 34.507812-15.476563 34.507812-34.503907v-12.09375c0-7.34375-5.976562-13.320312-13.320312-13.320312zm-173.730469 15v2.957031c0 2.441407-2.0625 4.5-4.5 4.5h-120.984375c-2.441406 0-4.5-2.058593-4.5-4.5v-2.957031zm172.050781 10.414062c0 10.753907-8.75 19.503907-19.507812 19.503907h-442.984376c-10.757812 0-19.507812-8.75-19.507812-19.503907v-10.414062h164.964844v2.957031c0 10.753907 8.746094 19.503907 19.5 19.503907h120.984375c10.75 0 19.5-8.75 19.5-19.503907v-2.957031h157.050781zm0 0"/><path d="m78.175781 36.078125c-7.582031 0-13.753906 6.171875-13.753906 13.753906v256.101563c0 7.582031 6.171875 13.753906 13.753906 13.753906h363.558594c7.585937 0 13.753906-6.171875 13.753906-13.753906 0-9.300782 0-245.269532 0-256.101563 0-7.582031-6.167969-13.753906-13.753906-13.753906-1.410156 0-356.03125 0-363.558594 0zm1.246094 15h32.269531v23.730469h-32.269531zm0 253.609375v-214.878906h361.066406v214.878906zm361.066406-229.878906h-313.792969v-23.730469h313.792969zm0 0"/><path d="m255.996094 145.660156c-23.582032-35.308594-80.046875-19.027344-80.046875 24.523438 0 54.863281 56.324219 86.808594 73.578125 95.285156 4.050781 2 8.886718 1.996094 12.9375-.003906 15.910156-7.851563 54.4375-30.136719 68.46875-67.441406 1.460937-3.875-.5-8.203126-4.378906-9.660157-3.875-1.457031-8.203126.503907-9.660157 4.378907-12.425781 33.035156-49.519531 53.550781-60.902343 59.1875-15.484376-7.632813-65.039063-35.714844-65.039063-81.746094 0-29.367188 39.304687-39.722656 53.816406-14.167969 1.445313 2.542969 5.550781 6.136719 10.890625 6.269531 5.1875.125 9.792969-3.199218 11.46875-6.136718 13.480469-23.640626 46.851563-16.671876 52.925782 6.164062 1.066406 4 5.179687 6.382812 9.175781 5.320312 4.003906-1.066406 6.386719-5.175781 5.320312-9.179687-9.226562-34.671875-57.171875-44.429687-78.554687-12.792969zm0 0"/></svg>